<svg
  height="18.824"
  viewBox="0 0 123.968 18.824"
  width="123.968"
  xmlns="http://www.w3.org/2000/svg"
>
  <g fill="#000">
    <path
      d="m6.344 10.478c.84933333 0 1.62066667-.104 2.314-.312s1.287-.507 1.781-.897.8796667-.86233333 1.157-1.417.416-1.17.416-1.846v-.052c0-.728-.1343333-1.365-.403-1.911s-.6456667-1.001-1.131-1.365c-.48533333-.364-1.066-.64133333-1.742-.832s-1.42133333-.286-2.236-.286h-5.148v8.918zm-6.344-10.166h6.604c1.00533333 0 1.91966667.12566667 2.743.377.8233333.25133333 1.534.61533333 2.132 1.092s1.0616667 1.05733333 1.391 1.742.494 1.469.494 2.353v.052c0 .95333333-.1906667 1.794-.572 2.522s-.897 1.33466667-1.547 1.82c-.65.4853333-1.404.8493333-2.262 1.092s-1.76366667.364-2.717.364h-4.914v6.786h-1.352z"
    />
    <path
      d="m24.856 9.75c.7626667 0 1.469-.09533333 2.119-.286s1.209-.46366667 1.677-.819.8363333-.78866667 1.105-1.3.403-1.09633333.403-1.755v-.052c0-1.23066667-.455-2.20133333-1.365-2.912s-2.197-1.066-3.861-1.066h-6.214v8.19zm-7.488-9.438h7.644c1.1266667 0 2.1233333.16033333 2.99.481s1.5773333.75833333 2.132 1.313c.4333333.43333333.7713333.94033333 1.014 1.521s.364 1.20033333.364 1.859v.052c0 .76266667-.1343333 1.443-.403 2.041s-.6413333 1.11366667-1.118 1.547-1.04.78433333-1.69 1.053c-.65.2686667-1.3563333.455-2.119.559l6.006 7.774h-1.716l-5.798-7.54h-.052-5.902v7.54h-1.352z"
    />
    <path
      d="m44.538 17.602c1.1266667 0 2.1623333-.2123333 3.107-.637s1.7593333-1.0053333 2.444-1.742 1.2176667-1.599 1.599-2.587.572-2.0453333.572-3.172v-.052c0-1.12666667-.195-2.18833333-.585-3.185s-.9273333-1.86333333-1.612-2.6-1.5036667-1.32166667-2.457-1.755-1.9933333-.65-3.12-.65-2.1623333.21233333-3.107.637-1.7593333 1.00533333-2.444 1.742-1.2176667 1.599-1.599 2.587-.572 2.04533333-.572 3.172v.052c0 1.1266667.195 2.1883333.585 3.185s.9273333 1.8633333 1.612 2.6 1.5036667 1.3216667 2.457 1.755 1.9933333.65 3.12.65zm-.052 1.222c-1.3866667 0-2.639-.2556667-3.757-.767s-2.0756667-1.196-2.873-2.054-1.4126667-1.8503333-1.846-2.977-.65-2.314-.65-3.562v-.052c0-1.248.221-2.43966667.663-3.575s1.0616667-2.13633333 1.859-3.003 1.7593333-1.55566667 2.886-2.067 2.3833333-.767 3.77-.767c1.3693333 0 2.6173333.25566667 3.744.767s2.0886667 1.196 2.886 2.054 1.4126667 1.85033333 1.846 2.977.65 2.314.65 3.562c.0173333.01733333.0173333.03466667 0 .052 0 1.248-.221 2.4396667-.663 3.575s-1.0616667 2.1363333-1.859 3.003-1.7636667 1.5556667-2.899 2.067-2.3876667.767-3.757.767z"
    />
    <path
      d="m64.61 10.478c.8493333 0 1.6206667-.104 2.314-.312s1.287-.507 1.781-.897.8796667-.86233333 1.157-1.417.416-1.17.416-1.846v-.052c0-.728-.1343333-1.365-.403-1.911s-.6456667-1.001-1.131-1.365-1.066-.64133333-1.742-.832-1.4213333-.286-2.236-.286h-5.148v8.918zm-6.344-10.166h6.604c1.0053333 0 1.9196667.12566667 2.743.377s1.534.61533333 2.132 1.092 1.0616667 1.05733333 1.391 1.742.494 1.469.494 2.353v.052c0 .95333333-.1906667 1.794-.572 2.522s-.897 1.33466667-1.547 1.82c-.65.4853333-1.404.8493333-2.262 1.092s-1.7636667.364-2.717.364h-4.914v6.786h-1.352z"
    />
    <path
      d="m75.634.312h12.948v1.248h-11.596v7.15h10.426v1.248h-10.426v7.306h11.726v1.248h-13.078z"
    />
    <path d="m93.054.312h1.352v16.952h10.686v1.248h-12.038z" />
    <path
      d="m116.636 9.75c.762667 0 1.469-.09533333 2.119-.286s1.209-.46366667 1.677-.819.836333-.78866667 1.105-1.3.403-1.09633333.403-1.755v-.052c0-1.23066667-.455-2.20133333-1.365-2.912s-2.197-1.066-3.861-1.066h-6.214v8.19zm-7.488-9.438h7.644c1.126667 0 2.123333.16033333 2.99.481s1.577333.75833333 2.132 1.313c.433333.43333333.771333.94033333 1.014 1.521s.364 1.20033333.364 1.859v.052c0 .76266667-.134333 1.443-.403 2.041s-.641333 1.11366667-1.118 1.547-1.04.78433333-1.69 1.053c-.65.2686667-1.356333.455-2.119.559l6.006 7.774h-1.716l-5.798-7.54h-.052-5.902v7.54h-1.352z"
    />
  </g>
</svg>
